<mxfile host="Electron" agent="Mozilla/5.0 (Windows NT 10.0; Win64; x64) AppleWebKit/537.36 (KHTML, like Gecko) draw.io/27.0.5 Chrome/134.0.6998.205 Electron/35.3.0 Safari/537.36" version="27.0.5">
  <diagram name="Page-1" id="xwmak-5hA3XtwqWL4nyW">
    <mxGraphModel dx="2745" dy="1138" grid="1" gridSize="10" guides="1" tooltips="1" connect="1" arrows="1" fold="1" page="1" pageScale="1" pageWidth="850" pageHeight="1100" math="0" shadow="0">
      <root>
        <mxCell id="0" />
        <mxCell id="1" parent="0" />
        <mxCell id="NSt6wr-jq1v2aIfcaAT3-144" value="" style="edgeStyle=orthogonalEdgeStyle;rounded=0;orthogonalLoop=1;jettySize=auto;html=1;" edge="1" parent="1" source="NSt6wr-jq1v2aIfcaAT3-1" target="NSt6wr-jq1v2aIfcaAT3-136">
          <mxGeometry relative="1" as="geometry" />
        </mxCell>
        <mxCell id="NSt6wr-jq1v2aIfcaAT3-1" value="" style="dashed=0;outlineConnect=0;html=1;align=center;labelPosition=center;verticalLabelPosition=bottom;verticalAlign=top;shape=mxgraph.weblogos.whatsapp;fillColor=#00E676;strokeColor=#dddddd" vertex="1" parent="1">
          <mxGeometry x="-250" y="175.73999999999998" width="114.4" height="115.02" as="geometry" />
        </mxCell>
        <mxCell id="NSt6wr-jq1v2aIfcaAT3-94" style="edgeStyle=orthogonalEdgeStyle;rounded=0;orthogonalLoop=1;jettySize=auto;html=1;exitX=1;exitY=0.5;exitDx=0;exitDy=0;exitPerimeter=0;" edge="1" parent="1" source="NSt6wr-jq1v2aIfcaAT3-5" target="NSt6wr-jq1v2aIfcaAT3-6">
          <mxGeometry relative="1" as="geometry" />
        </mxCell>
        <mxCell id="NSt6wr-jq1v2aIfcaAT3-5" value="Webhook" style="html=1;outlineConnect=0;whiteSpace=wrap;fillColor=#EBEBEB;shape=mxgraph.archimate3.application;appType=proc;archiType=rounded;" vertex="1" parent="1">
          <mxGeometry x="130" y="170" width="150" height="75" as="geometry" />
        </mxCell>
        <mxCell id="NSt6wr-jq1v2aIfcaAT3-9" value="" style="edgeStyle=orthogonalEdgeStyle;rounded=0;orthogonalLoop=1;jettySize=auto;html=1;" edge="1" parent="1" source="NSt6wr-jq1v2aIfcaAT3-6" target="NSt6wr-jq1v2aIfcaAT3-8">
          <mxGeometry relative="1" as="geometry" />
        </mxCell>
        <mxCell id="NSt6wr-jq1v2aIfcaAT3-15" style="edgeStyle=orthogonalEdgeStyle;rounded=0;orthogonalLoop=1;jettySize=auto;html=1;entryX=0;entryY=0.75;entryDx=0;entryDy=0;" edge="1" parent="1" source="NSt6wr-jq1v2aIfcaAT3-6" target="NSt6wr-jq1v2aIfcaAT3-10">
          <mxGeometry relative="1" as="geometry">
            <Array as="points">
              <mxPoint x="420" y="207" />
              <mxPoint x="420" y="281" />
            </Array>
          </mxGeometry>
        </mxCell>
        <mxCell id="NSt6wr-jq1v2aIfcaAT3-6" value="Check Media Type" style="sketch=0;outlineConnect=0;fontColor=#232F3E;gradientColor=none;strokeColor=#232F3E;fillColor=#ffffff;dashed=0;verticalLabelPosition=bottom;verticalAlign=top;align=center;html=1;fontSize=12;fontStyle=0;aspect=fixed;shape=mxgraph.aws4.resourceIcon;resIcon=mxgraph.aws4.lightbulb;" vertex="1" parent="1">
          <mxGeometry x="310" y="168.5" width="78" height="78" as="geometry" />
        </mxCell>
        <mxCell id="NSt6wr-jq1v2aIfcaAT3-18" value="" style="edgeStyle=orthogonalEdgeStyle;rounded=0;orthogonalLoop=1;jettySize=auto;html=1;" edge="1" parent="1" source="NSt6wr-jq1v2aIfcaAT3-8" target="NSt6wr-jq1v2aIfcaAT3-17">
          <mxGeometry relative="1" as="geometry" />
        </mxCell>
        <mxCell id="NSt6wr-jq1v2aIfcaAT3-8" value="" style="sketch=0;pointerEvents=1;shadow=0;dashed=0;html=1;strokeColor=none;fillColor=#505050;labelPosition=center;verticalLabelPosition=bottom;verticalAlign=top;outlineConnect=0;align=center;shape=mxgraph.office.concepts.sound_file;" vertex="1" parent="1">
          <mxGeometry x="436.15" y="131.5" width="78" height="78" as="geometry" />
        </mxCell>
        <mxCell id="NSt6wr-jq1v2aIfcaAT3-127" value="" style="edgeStyle=orthogonalEdgeStyle;rounded=0;orthogonalLoop=1;jettySize=auto;html=1;" edge="1" parent="1" source="NSt6wr-jq1v2aIfcaAT3-10" target="NSt6wr-jq1v2aIfcaAT3-124">
          <mxGeometry relative="1" as="geometry" />
        </mxCell>
        <mxCell id="NSt6wr-jq1v2aIfcaAT3-10" value="Text" style="shape=rect;strokeColor=none;fillColor=default;gradientColor=none;shadow=0;sketch=0;hachureGap=4;pointerEvents=0;fontFamily=Times New Roman;fontSize=35;fontStyle=1" vertex="1" parent="1">
          <mxGeometry x="720" y="270" width="70.29" height="15" as="geometry" />
        </mxCell>
        <mxCell id="NSt6wr-jq1v2aIfcaAT3-23" value="" style="edgeStyle=orthogonalEdgeStyle;rounded=0;orthogonalLoop=1;jettySize=auto;html=1;" edge="1" parent="1" source="NSt6wr-jq1v2aIfcaAT3-17" target="NSt6wr-jq1v2aIfcaAT3-22">
          <mxGeometry relative="1" as="geometry" />
        </mxCell>
        <mxCell id="NSt6wr-jq1v2aIfcaAT3-17" value="" style="image;html=1;points=[];align=center;fontSize=12;image=img/lib/azure2/general/Download.svg;" vertex="1" parent="1">
          <mxGeometry x="590" y="131.5" width="78" height="78" as="geometry" />
        </mxCell>
        <mxCell id="NSt6wr-jq1v2aIfcaAT3-19" value="&lt;font style=&quot;font-size: 20px;&quot;&gt;&lt;b&gt;Audio Download&lt;/b&gt;&lt;/font&gt;" style="text;html=1;align=center;verticalAlign=middle;whiteSpace=wrap;rounded=0;" vertex="1" parent="1">
          <mxGeometry x="544" y="90" width="170" height="30" as="geometry" />
        </mxCell>
        <mxCell id="NSt6wr-jq1v2aIfcaAT3-106" value="" style="edgeStyle=orthogonalEdgeStyle;rounded=0;orthogonalLoop=1;jettySize=auto;html=1;" edge="1" parent="1" source="NSt6wr-jq1v2aIfcaAT3-22" target="NSt6wr-jq1v2aIfcaAT3-10">
          <mxGeometry relative="1" as="geometry" />
        </mxCell>
        <mxCell id="NSt6wr-jq1v2aIfcaAT3-22" value="" style="sketch=0;points=[[0,0,0],[0.25,0,0],[0.5,0,0],[0.75,0,0],[1,0,0],[0,1,0],[0.25,1,0],[0.5,1,0],[0.75,1,0],[1,1,0],[0,0.25,0],[0,0.5,0],[0,0.75,0],[1,0.25,0],[1,0.5,0],[1,0.75,0]];outlineConnect=0;fontColor=#232F3E;fillColor=#01A88D;strokeColor=#ffffff;dashed=0;verticalLabelPosition=bottom;verticalAlign=top;align=center;html=1;fontSize=12;fontStyle=0;aspect=fixed;shape=mxgraph.aws4.resourceIcon;resIcon=mxgraph.aws4.transcribe;" vertex="1" parent="1">
          <mxGeometry x="750" y="131.5" width="78" height="78" as="geometry" />
        </mxCell>
        <mxCell id="NSt6wr-jq1v2aIfcaAT3-24" value="Transcribe" style="text;html=1;align=center;verticalAlign=middle;whiteSpace=wrap;rounded=0;fontStyle=1;fontSize=20;" vertex="1" parent="1">
          <mxGeometry x="723.83" y="108.5" width="130.33" height="23" as="geometry" />
        </mxCell>
        <mxCell id="NSt6wr-jq1v2aIfcaAT3-47" value="" style="group" vertex="1" connectable="0" parent="1">
          <mxGeometry x="942.25" y="370" width="520" height="346.6700000000001" as="geometry" />
        </mxCell>
        <mxCell id="NSt6wr-jq1v2aIfcaAT3-142" style="edgeStyle=orthogonalEdgeStyle;rounded=0;orthogonalLoop=1;jettySize=auto;html=1;exitX=0;exitY=0.5;exitDx=0;exitDy=0;" edge="1" parent="NSt6wr-jq1v2aIfcaAT3-47" source="NSt6wr-jq1v2aIfcaAT3-28">
          <mxGeometry relative="1" as="geometry">
            <mxPoint x="-932.25" y="-80" as="targetPoint" />
          </mxGeometry>
        </mxCell>
        <mxCell id="NSt6wr-jq1v2aIfcaAT3-28" value="" style="shape=ext;double=1;rounded=1;whiteSpace=wrap;html=1;fillColor=none;" vertex="1" parent="NSt6wr-jq1v2aIfcaAT3-47">
          <mxGeometry width="520" height="346.67" as="geometry" />
        </mxCell>
        <mxCell id="NSt6wr-jq1v2aIfcaAT3-45" value="" style="group" vertex="1" connectable="0" parent="NSt6wr-jq1v2aIfcaAT3-47">
          <mxGeometry x="10" y="40" width="475.59999999999997" height="277.79999999999995" as="geometry" />
        </mxCell>
        <mxCell id="NSt6wr-jq1v2aIfcaAT3-27" value="Check Into Database" style="text;html=1;align=center;verticalAlign=middle;whiteSpace=wrap;rounded=0;" vertex="1" parent="NSt6wr-jq1v2aIfcaAT3-45">
          <mxGeometry y="79.69999999999999" width="115.6" height="57.8" as="geometry" />
        </mxCell>
        <mxCell id="NSt6wr-jq1v2aIfcaAT3-30" value="Check Into Knowledgebase" style="text;html=1;align=center;verticalAlign=middle;whiteSpace=wrap;rounded=0;" vertex="1" parent="NSt6wr-jq1v2aIfcaAT3-45">
          <mxGeometry y="220" width="115.6" height="57.8" as="geometry" />
        </mxCell>
        <mxCell id="NSt6wr-jq1v2aIfcaAT3-35" value="" style="group" vertex="1" connectable="0" parent="NSt6wr-jq1v2aIfcaAT3-45">
          <mxGeometry x="360" y="140.3" width="115.59999999999997" height="137.5" as="geometry" />
        </mxCell>
        <mxCell id="NSt6wr-jq1v2aIfcaAT3-36" value="" style="html=1;verticalLabelPosition=bottom;align=center;labelBackgroundColor=#ffffff;verticalAlign=top;strokeWidth=2;strokeColor=#0080F0;shadow=0;dashed=0;shape=mxgraph.ios7.icons.tools;pointerEvents=1" vertex="1" parent="NSt6wr-jq1v2aIfcaAT3-35">
          <mxGeometry x="17.950000000000017" width="79.7" height="79.7" as="geometry" />
        </mxCell>
        <mxCell id="NSt6wr-jq1v2aIfcaAT3-37" value="Calculate Profit" style="text;html=1;align=center;verticalAlign=middle;whiteSpace=wrap;rounded=0;" vertex="1" parent="NSt6wr-jq1v2aIfcaAT3-35">
          <mxGeometry y="79.69999999999999" width="115.6" height="57.8" as="geometry" />
        </mxCell>
        <mxCell id="NSt6wr-jq1v2aIfcaAT3-38" value="" style="group" vertex="1" connectable="0" parent="NSt6wr-jq1v2aIfcaAT3-45">
          <mxGeometry x="360" width="115.59999999999997" height="137.5" as="geometry" />
        </mxCell>
        <mxCell id="NSt6wr-jq1v2aIfcaAT3-39" value="" style="html=1;verticalLabelPosition=bottom;align=center;labelBackgroundColor=#ffffff;verticalAlign=top;strokeWidth=2;strokeColor=#0080F0;shadow=0;dashed=0;shape=mxgraph.ios7.icons.tools;pointerEvents=1" vertex="1" parent="NSt6wr-jq1v2aIfcaAT3-38">
          <mxGeometry x="17.950000000000017" width="79.7" height="79.7" as="geometry" />
        </mxCell>
        <mxCell id="NSt6wr-jq1v2aIfcaAT3-40" value="Current Date Finder" style="text;html=1;align=center;verticalAlign=middle;whiteSpace=wrap;rounded=0;" vertex="1" parent="NSt6wr-jq1v2aIfcaAT3-38">
          <mxGeometry y="79.69999999999999" width="115.6" height="57.8" as="geometry" />
        </mxCell>
        <mxCell id="NSt6wr-jq1v2aIfcaAT3-44" value="" style="group" vertex="1" connectable="0" parent="NSt6wr-jq1v2aIfcaAT3-45">
          <mxGeometry x="17.950000000000003" width="297.65" height="229.70000000000005" as="geometry" />
        </mxCell>
        <mxCell id="NSt6wr-jq1v2aIfcaAT3-26" value="" style="html=1;verticalLabelPosition=bottom;align=center;labelBackgroundColor=#ffffff;verticalAlign=top;strokeWidth=2;strokeColor=#0080F0;shadow=0;dashed=0;shape=mxgraph.ios7.icons.tools;pointerEvents=1" vertex="1" parent="NSt6wr-jq1v2aIfcaAT3-44">
          <mxGeometry x="2.3500000000000014" width="79.7" height="79.7" as="geometry" />
        </mxCell>
        <mxCell id="NSt6wr-jq1v2aIfcaAT3-29" value="" style="html=1;verticalLabelPosition=bottom;align=center;labelBackgroundColor=#ffffff;verticalAlign=top;strokeWidth=2;strokeColor=#0080F0;shadow=0;dashed=0;shape=mxgraph.ios7.icons.tools;pointerEvents=1" vertex="1" parent="NSt6wr-jq1v2aIfcaAT3-44">
          <mxGeometry y="150" width="79.7" height="79.7" as="geometry" />
        </mxCell>
        <mxCell id="NSt6wr-jq1v2aIfcaAT3-34" value="" style="group" vertex="1" connectable="0" parent="NSt6wr-jq1v2aIfcaAT3-44">
          <mxGeometry x="182.05" width="115.59999999999997" height="137.5" as="geometry" />
        </mxCell>
        <mxCell id="NSt6wr-jq1v2aIfcaAT3-31" value="" style="html=1;verticalLabelPosition=bottom;align=center;labelBackgroundColor=#ffffff;verticalAlign=top;strokeWidth=2;strokeColor=#0080F0;shadow=0;dashed=0;shape=mxgraph.ios7.icons.tools;pointerEvents=1" vertex="1" parent="NSt6wr-jq1v2aIfcaAT3-34">
          <mxGeometry x="17.950000000000017" width="79.7" height="79.7" as="geometry" />
        </mxCell>
        <mxCell id="NSt6wr-jq1v2aIfcaAT3-33" value="Cloth Suggestions" style="text;html=1;align=center;verticalAlign=middle;whiteSpace=wrap;rounded=0;" vertex="1" parent="NSt6wr-jq1v2aIfcaAT3-34">
          <mxGeometry y="79.69999999999999" width="115.6" height="57.8" as="geometry" />
        </mxCell>
        <mxCell id="NSt6wr-jq1v2aIfcaAT3-41" value="&lt;b&gt;&lt;font style=&quot;font-size: 32px;&quot;&gt;Tools&lt;/font&gt;&lt;/b&gt;" style="text;html=1;align=center;verticalAlign=middle;whiteSpace=wrap;rounded=0;" vertex="1" parent="NSt6wr-jq1v2aIfcaAT3-44">
          <mxGeometry x="188.75" y="174" width="102.2" height="51.1" as="geometry" />
        </mxCell>
        <mxCell id="NSt6wr-jq1v2aIfcaAT3-118" value="" style="group" vertex="1" connectable="0" parent="1">
          <mxGeometry x="1129" y="140" width="146.5" height="186.5" as="geometry" />
        </mxCell>
        <mxCell id="NSt6wr-jq1v2aIfcaAT3-92" value="" style="sketch=0;points=[[0,0,0],[0.25,0,0],[0.5,0,0],[0.75,0,0],[1,0,0],[0,1,0],[0.25,1,0],[0.5,1,0],[0.75,1,0],[1,1,0],[0,0.25,0],[0,0.5,0],[0,0.75,0],[1,0.25,0],[1,0.5,0],[1,0.75,0]];outlineConnect=0;fontColor=#232F3E;fillColor=#01A88D;strokeColor=#ffffff;dashed=0;verticalLabelPosition=bottom;verticalAlign=top;align=center;html=1;fontSize=12;fontStyle=0;aspect=fixed;shape=mxgraph.aws4.resourceIcon;resIcon=mxgraph.aws4.machine_learning;" vertex="1" parent="NSt6wr-jq1v2aIfcaAT3-118">
          <mxGeometry y="40" width="146.5" height="146.5" as="geometry" />
        </mxCell>
        <mxCell id="NSt6wr-jq1v2aIfcaAT3-103" value="&lt;font style=&quot;font-size: 20px;&quot;&gt;Orchestrator&lt;/font&gt;" style="text;html=1;align=center;verticalAlign=middle;whiteSpace=wrap;rounded=0;fontStyle=1" vertex="1" parent="NSt6wr-jq1v2aIfcaAT3-118">
          <mxGeometry x="8.080000000000155" width="130.33" height="23" as="geometry" />
        </mxCell>
        <mxCell id="NSt6wr-jq1v2aIfcaAT3-123" value="" style="group" vertex="1" connectable="0" parent="1">
          <mxGeometry x="910" y="140" width="146.5" height="186.5" as="geometry" />
        </mxCell>
        <mxCell id="NSt6wr-jq1v2aIfcaAT3-124" value="" style="sketch=0;points=[[0,0,0],[0.25,0,0],[0.5,0,0],[0.75,0,0],[1,0,0],[0,1,0],[0.25,1,0],[0.5,1,0],[0.75,1,0],[1,1,0],[0,0.25,0],[0,0.5,0],[0,0.75,0],[1,0.25,0],[1,0.5,0],[1,0.75,0]];outlineConnect=0;fontColor=#232F3E;fillColor=#01A88D;strokeColor=#ffffff;dashed=0;verticalLabelPosition=bottom;verticalAlign=top;align=center;html=1;fontSize=12;fontStyle=0;aspect=fixed;shape=mxgraph.aws4.resourceIcon;resIcon=mxgraph.aws4.machine_learning;" vertex="1" parent="NSt6wr-jq1v2aIfcaAT3-123">
          <mxGeometry y="40" width="146.5" height="146.5" as="geometry" />
        </mxCell>
        <mxCell id="NSt6wr-jq1v2aIfcaAT3-125" value="&lt;font style=&quot;font-size: 20px;&quot;&gt;Translat To English&lt;/font&gt;" style="text;html=1;align=center;verticalAlign=middle;whiteSpace=wrap;rounded=0;fontStyle=1" vertex="1" parent="NSt6wr-jq1v2aIfcaAT3-123">
          <mxGeometry x="8.080000000000155" width="130.33" height="23" as="geometry" />
        </mxCell>
        <mxCell id="NSt6wr-jq1v2aIfcaAT3-132" value="" style="edgeStyle=orthogonalEdgeStyle;rounded=0;orthogonalLoop=1;jettySize=auto;html=1;" edge="1" parent="1" source="NSt6wr-jq1v2aIfcaAT3-124" target="NSt6wr-jq1v2aIfcaAT3-92">
          <mxGeometry relative="1" as="geometry" />
        </mxCell>
        <mxCell id="NSt6wr-jq1v2aIfcaAT3-134" style="edgeStyle=orthogonalEdgeStyle;rounded=0;orthogonalLoop=1;jettySize=auto;html=1;exitX=0.5;exitY=1;exitDx=0;exitDy=0;exitPerimeter=0;entryX=0.5;entryY=0;entryDx=0;entryDy=0;" edge="1" parent="1" source="NSt6wr-jq1v2aIfcaAT3-92" target="NSt6wr-jq1v2aIfcaAT3-28">
          <mxGeometry relative="1" as="geometry" />
        </mxCell>
        <mxCell id="NSt6wr-jq1v2aIfcaAT3-135" value="" style="group" vertex="1" connectable="0" parent="1">
          <mxGeometry x="-70" y="94.5" width="146.5" height="186.5" as="geometry" />
        </mxCell>
        <mxCell id="NSt6wr-jq1v2aIfcaAT3-143" style="edgeStyle=orthogonalEdgeStyle;rounded=0;orthogonalLoop=1;jettySize=auto;html=1;exitX=0;exitY=0.75;exitDx=0;exitDy=0;exitPerimeter=0;" edge="1" parent="NSt6wr-jq1v2aIfcaAT3-135" source="NSt6wr-jq1v2aIfcaAT3-136">
          <mxGeometry relative="1" as="geometry">
            <mxPoint x="-60" y="149.5" as="targetPoint" />
          </mxGeometry>
        </mxCell>
        <mxCell id="NSt6wr-jq1v2aIfcaAT3-136" value="" style="sketch=0;points=[[0,0,0],[0.25,0,0],[0.5,0,0],[0.75,0,0],[1,0,0],[0,1,0],[0.25,1,0],[0.5,1,0],[0.75,1,0],[1,1,0],[0,0.25,0],[0,0.5,0],[0,0.75,0],[1,0.25,0],[1,0.5,0],[1,0.75,0]];outlineConnect=0;fontColor=#232F3E;fillColor=#01A88D;strokeColor=#ffffff;dashed=0;verticalLabelPosition=bottom;verticalAlign=top;align=center;html=1;fontSize=12;fontStyle=0;aspect=fixed;shape=mxgraph.aws4.resourceIcon;resIcon=mxgraph.aws4.machine_learning;" vertex="1" parent="NSt6wr-jq1v2aIfcaAT3-135">
          <mxGeometry y="40" width="146.5" height="146.5" as="geometry" />
        </mxCell>
        <mxCell id="NSt6wr-jq1v2aIfcaAT3-137" value="&lt;font style=&quot;font-size: 20px;&quot;&gt;Receptionist&lt;/font&gt;" style="text;html=1;align=center;verticalAlign=middle;whiteSpace=wrap;rounded=0;fontStyle=1" vertex="1" parent="NSt6wr-jq1v2aIfcaAT3-135">
          <mxGeometry x="8.080000000000155" width="130.33" height="23" as="geometry" />
        </mxCell>
        <mxCell id="NSt6wr-jq1v2aIfcaAT3-140" value="" style="edgeStyle=orthogonalEdgeStyle;rounded=0;orthogonalLoop=1;jettySize=auto;html=1;" edge="1" parent="1" source="NSt6wr-jq1v2aIfcaAT3-136" target="NSt6wr-jq1v2aIfcaAT3-5">
          <mxGeometry relative="1" as="geometry" />
        </mxCell>
      </root>
    </mxGraphModel>
  </diagram>
</mxfile>
